<svg xmlns="http://www.w3.org/2000/svg" width="1024" height="1024" viewBox="0 0 1024 1024" version="1.1">
	<path d="M 1016.500 146.570 C 1013.200 147.780, 1003.300 151.347, 994.500 154.498 C 985.700 157.649, 976.250 161.048, 973.500 162.052 C 970.750 163.056, 964 165.521, 958.500 167.529 C 953 169.538, 940.625 174.097, 931 177.661 C 921.375 181.225, 910.350 185.288, 906.500 186.691 C 902.650 188.093, 896.125 190.506, 892 192.053 C 874.297 198.690, 867.566 201.171, 851.500 206.982 C 818.488 218.919, 809.459 222.317, 805.545 224.273 L 801.589 226.250 804.545 228.783 C 808.763 232.398, 828.230 250.325, 836.312 258.035 L 843.161 264.571 831.893 273.035 C 825.695 277.691, 814.688 286.225, 807.432 292 C 800.177 297.775, 787.774 307.424, 779.870 313.443 C 762.544 326.637, 746.314 339.240, 740.519 344 C 738.175 345.925, 731.812 350.982, 726.379 355.237 C 720.945 359.493, 710.686 367.593, 703.581 373.237 C 696.476 378.882, 688.319 385.300, 685.456 387.500 C 682.592 389.700, 677.381 393.856, 673.875 396.736 C 647.932 418.045, 631.225 429.084, 619.078 432.942 C 602.360 438.252, 592.505 439.187, 555.500 438.972 C 537.350 438.866, 519.800 438.688, 516.500 438.576 C 460.400 436.668, 462.031 436.659, 452 438.932 C 446.775 440.117, 440.475 441.520, 438 442.051 C 430.849 443.586, 414.162 452.399, 406.141 458.876 L 398.782 464.819 394.141 462.118 C 379.842 453.795, 370.183 451.544, 351.749 452.239 C 339.341 452.706, 337.973 452.964, 330.197 456.299 C 318.632 461.258, 313.243 464.959, 305.096 473.536 C 297.711 481.310, 292.779 489.779, 289.394 500.500 C 286.843 508.579, 286.738 535.090, 289.229 542 C 296.324 561.682, 305.775 573.501, 321.337 582.150 C 328.634 586.206, 334.450 588.221, 345.208 590.423 C 355.155 592.458, 359.808 592.397, 369 590.110 C 390.722 584.706, 403.667 576.015, 414.595 559.500 C 421.278 549.400, 427.049 528.109, 425.435 519.507 C 424.646 515.302, 425.220 514.599, 434.500 508.386 C 449.389 498.418, 458.118 496.574, 486.570 497.387 C 498.081 497.715, 529.573 498.263, 556.551 498.603 C 609.693 499.273, 604.982 499.565, 631.500 493.948 C 651.248 489.765, 677.397 474.638, 708 449.692 C 708.825 449.020, 712.650 445.974, 716.500 442.925 C 720.350 439.875, 730.025 432.207, 738 425.884 C 762.283 406.632, 772.167 398.935, 786.009 388.500 C 793.305 383, 806.075 373.314, 814.387 366.976 C 827.079 357.297, 876.068 320.300, 886.663 312.392 L 889.826 310.031 893.312 315.265 C 895.229 318.144, 900.106 325.100, 904.149 330.723 C 908.192 336.345, 914.840 345.795, 918.922 351.723 C 923.005 357.650, 927.241 363.507, 928.336 364.739 C 931.208 367.967, 930.456 369.326, 944.785 335 C 954.129 312.615, 959.359 300.227, 961.140 296.257 C 962.187 293.923, 964.344 288.748, 965.933 284.757 C 967.522 280.765, 970.266 274.125, 972.031 270 C 973.795 265.875, 976.045 260.475, 977.031 258 C 980.236 249.950, 989.049 228.577, 990.432 225.500 C 991.928 222.171, 1001.962 198.275, 1009.958 179 C 1012.810 172.125, 1016.956 162.175, 1019.172 156.889 C 1024.402 144.411, 1024.228 143.739, 1016.500 146.570 M 334.500 166.678 C 322.316 167.719, 300.703 170.184, 295.500 171.126 C 272.617 175.269, 252.410 180.518, 235.975 186.590 C 232.387 187.915, 229.135 189, 228.750 189 C 228.365 189, 225.226 190.271, 221.775 191.824 C 218.324 193.377, 213.925 195.251, 212 195.989 C 206.932 197.933, 181.574 210.979, 172.908 216.102 C 110.063 253.254, 55.674 317.244, 27.400 387.296 C 20.903 403.392, 11.604 432.308, 9.968 441.500 C 9.576 443.700, 8.335 449.775, 7.209 455 C 0.899 484.275, -0.824 527.016, 3.024 558.787 C 5.329 577.821, 9.901 601.734, 13.484 613.500 C 14.824 617.900, 16.345 623.075, 16.865 625 C 18.262 630.174, 26.310 652.519, 29.472 660 C 30.983 663.575, 35.694 673.475, 39.941 682 C 60.328 722.923, 85.688 756.006, 123.302 790.742 C 158.836 823.559, 211.152 851.843, 263.500 866.540 C 275.545 869.922, 301.800 874.869, 313.456 875.954 C 320.032 876.566, 328.357 877.493, 331.956 878.013 C 340.468 879.245, 372.786 879.257, 380.500 878.032 C 383.800 877.507, 391.450 876.597, 397.500 876.010 C 403.550 875.422, 416.361 873.342, 425.968 871.387 C 479.438 860.507, 529.001 838.408, 570 807.165 C 594.766 788.292, 622.995 760.109, 641.132 736.148 C 644.316 731.942, 647.300 728.050, 647.763 727.500 C 653.744 720.403, 669.884 693.408, 676.760 679 C 686.445 658.708, 687.971 655.078, 692.669 641.164 C 698.919 622.652, 700.482 617.059, 704.454 599 C 709.581 575.687, 712.270 554.860, 712.393 537.500 L 712.500 522.500 686.831 522.233 L 661.163 521.967 660.516 528.733 C 656.234 573.503, 653.694 587.760, 645.076 615.386 C 628.381 668.902, 592.726 721.133, 547.990 757.607 C 525.900 775.617, 494.966 794.071, 471.500 803.239 C 449.037 812.015, 419.968 819.703, 400.500 822.018 C 396.650 822.475, 392.375 823.118, 391 823.445 C 386.204 824.588, 330.702 824.249, 322.500 823.027 C 269.260 815.092, 228.281 799.610, 188.002 772.212 C 145.301 743.167, 105.320 696.154, 84.416 650.407 C 72.710 624.789, 65.922 603.402, 59.846 573 L 56.549 556.500 56.524 520.500 C 56.499 483.410, 56.466 483.832, 61.195 460.500 C 68.338 425.258, 80.754 393.581, 99.411 363 C 126.935 317.885, 171.051 277.608, 219.005 253.810 C 239.866 243.458, 249.985 239.412, 270.500 233.223 C 297.737 225.005, 332.003 220.461, 360 221.353 C 380.500 222.007, 401.339 224.371, 414.736 227.562 C 420.366 228.903, 425.541 229.998, 426.236 229.995 C 427.484 229.990, 445.626 235.457, 449.500 237.005 C 450.600 237.445, 454.200 238.807, 457.500 240.031 C 486.310 250.722, 517.650 268.573, 543.694 289.129 C 554.538 297.688, 567.200 308.426, 569.924 311.376 C 571.258 312.819, 572.866 314, 573.498 314 C 574.130 314, 583.165 305.691, 593.574 295.535 L 612.500 277.070 604.500 268.947 C 564.025 227.845, 500.785 192.073, 443 177.592 C 434.501 175.463, 427.918 174.075, 411.500 170.953 C 393.144 167.463, 352.032 165.180, 334.500 166.678 M 338.361 289.685 C 327.907 290.941, 317.724 292.524, 309.500 294.172 C 303.157 295.443, 284.058 300.898, 281.764 302.095 C 280.809 302.593, 279.583 303, 279.041 303 C 276.574 303, 246.967 317.369, 236.622 323.587 C 218.567 334.439, 201.650 348.714, 182.214 369.500 C 170.659 381.857, 164.247 390.335, 156.499 403.500 C 140.928 429.959, 131.959 454.129, 126.816 483.500 C 124.834 494.817, 124.549 499.737, 124.615 521.500 C 124.672 540.011, 125.109 548.706, 126.300 555 C 127.185 559.675, 128.206 565.075, 128.571 567 C 129.900 574.020, 137.209 597.485, 141.144 607.361 C 145.845 619.161, 152.894 632.763, 160.959 645.595 C 178.298 673.186, 205.391 700.620, 232.960 718.504 C 280.196 749.146, 341.003 761.325, 397 751.359 C 444.309 742.939, 484.832 722.227, 518.230 689.398 C 540.764 667.248, 553.662 649.848, 566.336 624.500 C 581.043 595.087, 589.171 563.978, 591.352 528.750 L 591.770 522 566.510 522 L 541.250 522 540.625 525.125 C 540.281 526.844, 540 531.429, 540 535.315 C 540 548.408, 534.400 574.287, 528.340 589.201 C 516.086 619.358, 495.157 647.213, 469 668.178 C 457.403 677.472, 437.726 688.618, 424 693.667 C 420.425 694.982, 416.600 696.443, 415.500 696.915 C 410.516 699.051, 394.514 702.596, 381 704.558 C 353.350 708.571, 317.987 703.788, 289.500 692.182 C 276.653 686.948, 255.416 674.567, 245 666.238 C 237.922 660.579, 223.631 646.732, 217.773 639.858 C 205.530 625.490, 191.992 602.084, 185.465 584 C 177.186 561.065, 175.649 551.362, 175.641 522 C 175.636 501.045, 175.940 495.981, 177.744 487 C 182.699 462.332, 190.642 442.887, 203.957 422.826 C 213.230 408.854, 221.012 399.883, 233.770 388.457 C 256.293 368.285, 282.013 354.441, 310.910 346.936 C 326.193 342.967, 338.496 341.500, 356.500 341.500 C 374.011 341.500, 386.230 342.980, 401.500 346.951 C 426.539 353.463, 446.024 363.084, 468.433 380.001 C 473.532 383.851, 478.212 387, 478.833 387 C 480.729 387, 514.255 353.267, 513.785 351.832 C 512.628 348.305, 488.755 329.892, 473.500 320.763 C 466.184 316.384, 449.651 308, 448.333 308 C 447.806 308, 445.463 307.076, 443.125 305.946 C 418.404 294.003, 367.797 286.147, 338.361 289.685" stroke="none" fill="#D4AF37" fill-rule="evenodd"/>
</svg>